name rise30.9205peak61.366fall85.3838.mot
datacolumns 19
datarows 29
range 4.79498800000000 4.84165500000000
endheader
time	ground_force1_vx	ground_force1_vy	ground_force1_vz	ground_force1_px	ground_force1_py	ground_force1_pz	ground_force2_vx	ground_force2_vy	ground_force2_vz	ground_force2_px	ground_force2_py	ground_force2_pz	ground_torque1_x	ground_torque1_y	ground_torque1_z	ground_torque2_x	ground_torque2_y	ground_torque2_z	
4.79498800000000	-32.20778600000000	811.69727799999998	58.76807200000000	0.15801100000000	0.00000000000000	0.10445900000000	-5.35539200000000	10.73907800000000	2.55582000000000	0.00000000000000	0.00000000000000	0.00000000000000	0.00000000000000	24.17214300000000	0.00000000000000	0.00000000000000	0.73439500000000	0.00000000000000	
4.79665400000000	-32.80411400000000	809.04677100000004	58.51837400000000	0.15714900000000	0.00000000000000	0.10434800000000	-7.12237700000000	15.16044400000000	3.42610100000000	0.00000000000000	0.00000000000000	0.00000000000000	0.00000000000000	24.07753200000000	0.00000000000000	0.00000000000000	0.98858600000000	0.00000000000000	
4.79831700000000	-33.42338300000000	806.30956000000003	58.25006800000000	0.15629300000000	0.00000000000000	0.10423500000000	-8.97972000000000	20.09005300000000	4.34901600000000	0.00000000000000	0.00000000000000	0.00000000000000	0.00000000000000	23.98430400000000	0.00000000000000	0.00000000000000	1.25946800000000	0.00000000000000	
4.79998800000000	-34.06579200000000	803.48590000000002	57.96322700000000	0.15544200000000	0.00000000000000	0.10411900000000	-10.86075800000000	25.42689600000000	5.29346100000000	0.39185700000000	0.00000000000000	-0.06070400000000	0.00000000000000	23.89262100000000	0.00000000000000	0.00000000000000	2.95326000000000	0.00000000000000	
4.80165000000000	-34.73147600000000	800.57597399999997	57.65793900000000	0.15459600000000	0.00000000000000	0.10400100000000	-12.69548100000000	31.05528400000000	6.22642800000000	0.39505900000000	0.00000000000000	-0.06149200000000	0.00000000000000	23.80262800000000	0.00000000000000	0.00000000000000	3.49477900000000	0.00000000000000	
4.80331300000000	-35.42050600000000	797.57988799999998	57.33430600000000	0.15375700000000	0.00000000000000	0.10388000000000	-14.41586500000000	36.85469300000000	7.11553300000000	0.39816200000000	0.00000000000000	-0.06221600000000	0.00000000000000	23.71445900000000	0.00000000000000	0.00000000000000	4.01860700000000	0.00000000000000	
4.80498700000000	-36.13288600000000	794.49767199999997	56.99244300000000	0.15292300000000	0.00000000000000	0.10375700000000	-15.96090500000000	42.70967300000000	7.93141100000000	0.40116500000000	0.00000000000000	-0.06288400000000	0.00000000000000	23.62822900000000	0.00000000000000	0.00000000000000	4.50818000000000	0.00000000000000	
4.80665300000000	-36.86854900000000	791.32926999999995	56.63247800000000	0.15209400000000	0.00000000000000	0.10363200000000	-17.28068000000000	48.51852800000000	8.64968900000000	0.40406800000000	0.00000000000000	-0.06350400000000	0.00000000000000	23.54404000000000	0.00000000000000	0.00000000000000	4.94940500000000	0.00000000000000	
4.80831700000000	-37.62735500000000	788.07454600000005	56.25455400000000	0.15127100000000	0.00000000000000	0.10350400000000	-18.33906800000000	54.19983600000000	9.25231800000000	0.40687100000000	0.00000000000000	-0.06408000000000	0.00000000000000	23.46197700000000	0.00000000000000	0.00000000000000	5.33147400000000	0.00000000000000	
4.80998500000000	-38.40909100000000	784.73327800000004	55.85882100000000	0.15045400000000	0.00000000000000	0.10337400000000	-19.11496300000000	59.69638600000000	9.72822300000000	0.40957400000000	0.00000000000000	-0.06462000000000	0.00000000000000	23.38210800000000	0.00000000000000	0.00000000000000	5.64731200000000	0.00000000000000	
4.81165400000000	-39.21346400000000	781.30515700000001	55.44544500000000	0.14964100000000	0.00000000000000	0.10324200000000	-19.60208000000000	64.97651100000000	10.07326800000000	0.41217900000000	0.00000000000000	-0.06512600000000	0.00000000000000	23.30448200000000	0.00000000000000	0.00000000000000	5.89364300000000	0.00000000000000	
4.81332100000000	-40.04010000000000	777.78978800000004	55.01460200000000	0.14883400000000	0.00000000000000	0.10310800000000	-19.80757900000000	70.03310100000000	10.28967000000000	0.41468400000000	0.00000000000000	-0.06560200000000	0.00000000000000	23.22913300000000	0.00000000000000	0.00000000000000	6.07074800000000	0.00000000000000	
4.81498700000000	-40.88854500000000	774.18669100000000	54.56647700000000	0.14803100000000	0.00000000000000	0.10297100000000	-19.74980900000000	74.88074800000000	10.38498500000000	0.41709200000000	0.00000000000000	-0.06605200000000	0.00000000000000	23.15607500000000	0.00000000000000	0.00000000000000	6.18195800000000	0.00000000000000	
4.81665000000000	-41.75826000000000	770.49530000000004	54.10126700000000	0.14723300000000	0.00000000000000	0.10283300000000	-19.45550600000000	79.55158800000000	10.37082600000000	0.41940400000000	0.00000000000000	-0.06647900000000	0.00000000000000	23.08530500000000	0.00000000000000	0.00000000000000	6.23299200000000	0.00000000000000	
4.81831700000000	-42.64861900000000	766.71496400000001	53.61918000000000	0.14643900000000	0.00000000000000	0.10269300000000	-18.95678900000000	84.09041700000000	10.26147000000000	0.42161900000000	0.00000000000000	-0.06688400000000	0.00000000000000	23.01679800000000	0.00000000000000	0.00000000000000	6.23120300000000	0.00000000000000	
4.81998100000000	-43.55891100000000	762.84495000000004	53.12043200000000	0.14564900000000	0.00000000000000	0.10255100000000	-18.28821300000000	88.54959700000001	10.07248200000000	0.42374100000000	0.00000000000000	-0.06727000000000	0.00000000000000	22.95051600000000	0.00000000000000	0.00000000000000	6.18481700000000	0.00000000000000	
4.82165000000000	-44.48833300000000	758.88444800000002	52.60525000000000	0.14486300000000	0.00000000000000	0.10240700000000	-17.48412700000000	92.98421399999999	9.81947000000000	0.42576800000000	0.00000000000000	-0.06763800000000	0.00000000000000	22.88639700000000	0.00000000000000	0.00000000000000	6.10222700000000	0.00000000000000	
4.82332100000000	-45.43599200000000	754.83257000000003	52.07387100000000	0.14408000000000	0.00000000000000	0.10226200000000	-16.57648400000000	97.44782200000000	9.51704700000000	0.42770400000000	0.00000000000000	-0.06799000000000	0.00000000000000	22.82436300000000	0.00000000000000	0.00000000000000	5.99140100000000	0.00000000000000	
4.82498100000000	-46.40090600000000	750.68835300000001	51.52654000000000	0.14329900000000	0.00000000000000	0.10211500000000	-15.59320400000000	101.98901300000000	9.17804200000000	0.42955000000000	0.00000000000000	-0.06832700000000	0.00000000000000	22.76431700000000	0.00000000000000	0.00000000000000	5.85940700000000	0.00000000000000	
4.82664800000000	-47.38199900000000	746.45076900000004	50.96351400000000	0.14252100000000	0.00000000000000	0.10196700000000	-14.55711400000000	106.64892700000000	8.81298200000000	0.43130600000000	0.00000000000000	-0.06865100000000	0.00000000000000	22.70614300000000	0.00000000000000	0.00000000000000	5.71209700000000	0.00000000000000	
4.82832200000000	-48.37810300000000	742.11872500000004	50.38505800000000	0.14174500000000	0.00000000000000	0.10181700000000	-13.48544600000000	111.45972900000000	8.42983300000000	0.43297500000000	0.00000000000000	-0.06896200000000	0.00000000000000	22.64970800000000	0.00000000000000	0.00000000000000	5.55393900000000	0.00000000000000	
4.82998500000000	-49.38795800000000	737.69106699999998	49.79144700000000	0.14097100000000	0.00000000000000	0.10166600000000	-12.38983800000000	116.44399600000000	8.03398000000000	0.43455800000000	0.00000000000000	-0.06926100000000	0.00000000000000	22.59486100000000	0.00000000000000	0.00000000000000	5.38797200000000	0.00000000000000	
4.83165200000000	-50.41021100000000	733.16659000000004	49.18296600000000	0.14019700000000	0.00000000000000	0.10151400000000	-11.27673400000000	121.61488900000001	7.62839600000000	0.43605600000000	0.00000000000000	-0.06954900000000	0.00000000000000	22.54143300000000	0.00000000000000	0.00000000000000	5.21588900000000	0.00000000000000	
4.83332200000000	-51.44341800000000	728.54404199999999	48.55990800000000	0.13942500000000	0.00000000000000	0.10136100000000	-10.14809600000000	126.97695899999999	7.21395600000000	0.43747200000000	0.00000000000000	-0.06982700000000	0.00000000000000	22.48923700000000	0.00000000000000	0.00000000000000	5.03819800000000	0.00000000000000	
4.83497900000000	-52.48604500000000	723.82212800000002	47.92258000000000	0.13865200000000	0.00000000000000	0.10120700000000	-9.00230200000000	132.52741100000000	6.78985100000000	0.43880700000000	0.00000000000000	-0.07009500000000	0.00000000000000	22.43807000000000	0.00000000000000	0.00000000000000	4.85444500000000	0.00000000000000	
4.83664700000000	-53.53646600000000	718.99952199999996	47.27129500000000	0.13788000000000	0.00000000000000	0.10105200000000	-7.83514200000000	138.25763799999999	6.35404700000000	0.44006200000000	0.00000000000000	-0.07035400000000	0.00000000000000	22.38771600000000	0.00000000000000	0.00000000000000	4.66347100000000	0.00000000000000	
4.83832300000000	-54.59296800000000	714.07486700000004	46.60637900000000	0.13710600000000	0.00000000000000	0.10089600000000	-6.64080900000000	144.15487400000001	5.90374600000000	0.44124000000000	0.00000000000000	-0.07060300000000	0.00000000000000	22.33793800000000	0.00000000000000	0.00000000000000	4.46367000000000	0.00000000000000	
4.83997900000000	-55.65375300000000	709.04679199999998	45.92816700000000	0.13633200000000	0.00000000000000	0.10074000000000	-5.41282300000000	150.20380399999999	5.43581600000000	0.44234100000000	0.00000000000000	-0.07084400000000	0.00000000000000	22.28848900000000	0.00000000000000	0.00000000000000	4.25324000000000	0.00000000000000	
4.84165500000000	-56.71693700000000	703.91391099999998	45.23700800000000	0.13555700000000	0.00000000000000	0.10058300000000	-4.14482200000000	156.38803999999999	4.94717100000000	0.44336900000000	0.00000000000000	-0.07107700000000	0.00000000000000	22.23910600000000	0.00000000000000	0.00000000000000	4.03039800000000	0.00000000000000	
